<?xml version="1.0" encoding="iso-8859-1"?>
<!-- Generator: Adobe Illustrator 25.2.3, SVG Export Plug-In . SVG Version: 6.00 Build 0)  -->
<svg version="1.1" id="Layer_1" xmlns="http://www.w3.org/2000/svg" xmlns:xlink="http://www.w3.org/1999/xlink" x="0px" y="0px"
	 width="4000px" height="4000px" viewBox="0 0 4000 4000" enable-background="new 0 0 4000 4000" xml:space="preserve">
<path fill="#a67c7c" d="M3949.083,3234.724c-11.656-5.419-287.943-132.927-509.018-115.994
	c-206.994,15.701-413.588,184.724-448.5,214.49c-46.564-3.613-93.049-8.316-139.38-14.008l-100.258-13.659l-99.531-18.41
	l-32.136-5.955c-0.167-0.094-0.35-0.198-0.501-0.273c-3.359-1.759-6.952-2.07-10.466-1.759l-6.646-1.233
	c-6.665-1.364-13.293-2.916-19.922-4.459c89.232-4.835,194.36-23.669,277.174-77.122
	c174.386-112.588,265.45-317.482,269.241-326.156c2.295-5.268,1.674-11.345-1.646-16.03c-3.321-4.704-8.89-7.489-14.581-6.867
	c-11.007,0.809-271.602,21.317-449.365,128.694c-108.633,65.617-177.565,130.745-219.847,180.322
	c5.691-32.399,9.697-65.1,8.801-97.423c-0.136-4.986-0.658-9.756-1.209-14.506c33.411-4.553,82.63-14.629,138.746-37.611
	c78.562-32.155,167.452-127.904,171.197-131.968c4.327-4.685,5.541-11.458,3.104-17.347c-2.427-5.889-8.062-9.84-14.431-10.123
	c-2.888-0.225-71.572-2.728-163.323,29.389c-33.933,11.863-68.152,33.744-98.167,56.934
	c61.506-88.787,160.223-133.2,220.125-152.974c10.075,16.087,27.827,26.896,48.166,26.896c31.393,0,56.934-25.551,56.934-56.934
	c0-31.383-25.541-56.934-56.934-56.934c-30.71,0-55.668,24.497-56.741,54.949c-41.671,13.443-101.255,38.11-156.55,80.66
	c45.662-91.582,73.503-166.531,88.934-213.652h0.019c31.91,0,57.875-25.965,57.875-57.875c0-31.91-25.965-57.875-57.875-57.875
	c-31.901,0-57.865,25.965-57.865,57.875c0,20.339,10.6,38.175,26.51,48.505c-14.845,45.325-41.651,117.461-85.532,205.797
	c-0.023-60.217-12.089-106.633-23.841-137.537c8.963-8.993,14.518-21.383,14.518-35.052c0-27.394-22.296-49.69-49.69-49.69
	c-27.395,0-49.69,22.296-49.69,49.69c0,27.395,22.296,49.69,49.69,49.69c1.778,0,3.462-0.339,5.193-0.527
	c14.53,39.568,29.777,107.32,14.715,197.82c-15.047,27.103-31.731,55.353-49.819,84.319c-6.703-12.427-13.947-24.158-20.946-35.325
	c-11.448-18.288-22.267-35.56-29.426-53.792c-20.555-52.305-51.637-107.151-139.108-153.868
	c-70.198-37.526-141.22-18.344-165.613-9.737c-37.145-23.829-80.82-32.211-113.393-26.35c-23.839,4.252-54.657,1.863-87.263-0.677
	c-39.013-3.029-79.343-6.153-117.301,0.677c-38.801,6.999-91.172,47.395-136.493,95.965c-3.222-6.896-6.58-13.641-10.141-20.104
	c-16.839-30.555-28.429-54.394-37.743-73.528c-20.273-41.694-32.512-66.849-69.634-104.93
	c-35.367-36.266-105.274-49.512-184.979-55.335c16.463-12.249,30.188-24.506,39.266-34.713c8.965-10.084,24.431-22.973,40.8-36.632
	c40.17-33.509,90.151-75.222,106.088-123.407c26.275-79.399,60.518-193.041,54.695-262.976
	c-7.086-84.958-50.414-143.501-121.826-166.276c0.259-17.761-2.208-34.714-9.125-48.627c-16.773-33.735-54.958-68.26-88.646-98.703
	c-18.467-16.689-35.917-32.456-43.039-42.503c-11.948-16.877-41.891-36.708-75.33-53.378c38.091-2.879,79.549-10.894,117.24-29.106
	c156.709-75.711,240.313-242.373,243.794-249.429c0.263-0.536,0.202-1.147,0.404-1.703c0.517-1.42,0.91-2.822,1.026-4.327
	c0.066-0.894,0.002-1.722-0.075-2.615c-0.12-1.411-0.421-2.738-0.912-4.102c-0.183-0.508-0.113-1.063-0.348-1.552
	c-0.193-0.405-0.588-0.64-0.809-1.016c-0.273-0.48-0.334-1.016-0.659-1.468c-0.541-0.753-1.319-1.195-1.956-1.825
	c-0.652-0.658-1.218-1.308-1.966-1.844c-1.331-0.941-2.771-1.552-4.292-2.06c-0.534-0.179-0.948-0.602-1.503-0.725
	c-5.372-1.185-133.313-28.711-287.388,46.887c-69.709,34.224-120.711,90.942-154.334,138.976
	c14.238-70.819,29.601-136.878,45.772-198.553c13.998,4.497,35.066,9.153,63.331,9.153c48.223,0,116.643-13.584,203.323-64.723
	c146.944-86.68,204.047-255.167,206.399-262.279c0.226-0.677,0.108-1.392,0.242-2.089c0.238-1.214,0.463-2.39,0.421-3.622
	c-0.033-0.969-0.268-1.863-0.471-2.813c-0.249-1.176-0.522-2.296-1.032-3.406c-0.157-0.339-0.143-0.734-0.327-1.072
	c-0.334-0.612-0.917-0.997-1.319-1.552c-0.435-0.612-0.645-1.317-1.174-1.872c-0.306-0.32-0.72-0.442-1.044-0.734
	c-0.781-0.705-1.622-1.232-2.521-1.778c-1.03-0.612-2.032-1.167-3.147-1.543c-0.39-0.132-0.694-0.433-1.096-0.536
	c-5.306-1.411-131.328-32.061-296.278,79.154c-53.787,36.247-92.701,73.218-121.038,106.831
	c12.85-40.132,25.953-77.959,39.203-113.548c30.856-11.599,111.765-53.481,196.766-192.363
	c76.529-125.063,104.93-315.789,106.097-323.86c0.014-0.085-0.028-0.169-0.019-0.263c0.277-2.154,0.165-4.365-0.428-6.491
	c-0.172-0.621-0.625-1.12-0.87-1.712c-0.569-1.392-1.087-2.822-2.07-4.064c-0.047-0.057-0.117-0.085-0.167-0.141
	c-0.054-0.066-0.061-0.15-0.115-0.216c-0.529-0.63-1.296-0.95-1.905-1.486c-1.016-0.894-1.976-1.844-3.147-2.446
	c-0.8-0.423-1.684-0.536-2.542-0.818c-1.256-0.404-2.477-0.818-3.789-0.913c-0.242-0.019-0.452-0.16-0.696-0.169
	c-6.999-0.621-166.756-2.013-283.55,224.048c-87.235,168.854-47.054,278.949-36.67,302.045
	c-11.774,31.995-23.448,65.495-34.902,101.083c-4.939-54.14-16.997-118.872-43.067-187.848
	c-54.384-143.905-136.956-183.991-173.937-195.035c-3.509-4.798-9.367-7.639-15.642-6.623c-2.356,0.376-4.471,1.27-6.345,2.502
	c-4.96,0.348-9.403,2.964-12.178,7.15c-1.609,2.409-21.359,33.18-31.755,88.787c-56.957,29.549-127.057,77.207-169.809,147.96
	c-32.112,53.115-47.409,110.556-54.361,160.66c-6.83-33.707-12.775-67.592-17.719-101.657
	c-7.204-46.774-12.973-93.773-17.481-140.905c6.427,0.696,14.144,1.223,23.032,1.223c43.82,0,114.441-12.606,181.131-79.267
	c102.992-103.011,104.573-336.673,104.592-346.57c0-4.967-2.248-9.671-6.124-12.794c-3.876-3.105-8.965-4.29-13.81-3.217
	c-5.306,1.166-131.017,30.217-233.483,152.72c-31.99,38.251-52.233,87.489-65.179,133.379c-1.249-39.474-1.642-78.976-0.927-118.477
	c0.141-6.896,0.423-13.792,0.614-20.696c13.867-11.806,117.24-105.307,155.634-296.541C830.461,161.352,741.269,13.937,737.46,7.747
	c-2.512-4.064-6.67-6.811-11.383-7.563c-4.77-0.696-9.53,0.602-13.161,3.688c-6.595,5.588-161.78,139.192-189.946,327.699
	c-28.363,189.804,82.334,321.452,87.057,326.965c0.263,0.31,0.649,0.414,0.931,0.696c-0.263,6.698-0.616,13.396-0.833,20.104
	c-1.082,36.397-1.284,72.814-0.713,109.23c-17.679-46.877-43.714-98.11-82.011-142.184
	c-99.07-114.018-216.804-160.886-221.762-162.824c-4.582-1.788-9.671-1.449-13.932,0.941c-4.271,2.371-7.253,6.548-8.147,11.345
	c-1.637,8.88-38.749,218.949,81.384,349.091c84.552,91.601,213.415,103.463,252.376,104.921
	c4.052,49.539,9.518,98.976,16.515,148.205c5.24,39.276,11.917,78.336,19.607,117.188c-35.014-53.905-86.76-116.107-156.681-156.164
	c-141.676-81.129-241.865-76.934-246.005-76.689c-4.356,0.245-8.438,2.183-11.345,5.437c-2.907,3.236-4.403,7.507-4.158,11.853
	c0.517,9.069,14.365,222.938,173.191,320.474c48.27,29.633,109.023,38.044,162.429,38.044c48.942,0,91.609-7.046,112.969-11.308
	c14.134,53.67,30.083,106.888,47.566,159.531l19.462,55.034c-32.291-31.195-76.306-64.14-134.945-90.575
	c-155.223-69.991-310.794-58.853-317.294-58.326c-5.155,0.395-9.812,3.198-12.578,7.583c-2.766,4.365-3.302,9.765-1.458,14.6
	c2.916,7.62,73.321,187.453,240.981,255.393c52.136,21.129,100.895,28.316,143.191,28.316c50.908,0,92.066-10.395,118.67-19.558
	c-1.188,0.828-2.418,1.458-3.598,2.324c-33.883,24.836-61.762,70.989-77.409,120.218c-37.202-34.629-84.841-70.396-146.394-104.413
	c-156.86-86.718-337.229-41.092-344.839-39.116c-0.579,0.151-1.007,0.536-1.552,0.743c-0.955,0.357-1.839,0.771-2.723,1.308
	c-1.011,0.621-1.886,1.326-2.728,2.135c-0.404,0.386-0.922,0.574-1.293,1.006c-0.263,0.301-0.329,0.687-0.564,1.007
	c-0.71,0.959-1.228,1.985-1.717,3.076c-0.383,0.856-0.778,1.675-1.007,2.578c-0.263,1.026-0.305,2.06-0.365,3.133
	c-0.054,1.054-0.12,2.06,0.024,3.104c0.047,0.339-0.064,0.668,0.007,1.007c1.284,6.378,30.518,142.25,163.177,247.359
	c-146.342,33.65-235.28,101.299-242.039,106.596c-1.903,1.421-3.481,3.218-4.631,5.353c-0.355,0.658-0.426,1.411-0.689,2.107
	c-0.466,1.232-1.072,2.399-1.237,3.763c-0.016,0.132,0.042,0.254,0.031,0.386c-0.012,0.132-0.096,0.235-0.106,0.367
	c-0.061,0.837,0.261,1.618,0.325,2.446c0.104,1.28,0.118,2.568,0.504,3.763c0.268,0.837,0.781,1.524,1.18,2.314
	c0.593,1.157,1.148,2.305,1.994,3.292c0.162,0.188,0.212,0.442,0.381,0.621c5.607,5.964,133.294,139.832,314.989,139.832
	c9.153,0,18.448-0.339,27.874-1.054c9.617-0.734,18.566-1.788,27.653-2.775c1.482,10.583,3.271,21.054,5.132,31.75
	c3.01,17.31,6.124,35.203,8.119,55.598c9.344,95.711,106.77,191.789,184.861,210.209c6.91,17.074,19.542,34.187,35.88,50.452
	c-23.417-0.564-46.538-0.79-69.187-0.611c-17.338-35.015-86.77-150.133-273.107-207.556c-5.569-1.693-11.59-0.357-15.88,3.556
	c-4.29,3.932-6.181,9.821-4.967,15.503c1.228,5.795,28.425,123.821,188.753,191.789c-35.407,1.938-69.354,4.61-101.626,7.78
	c-66.878-15.691-117.245-42.06-149.919-63.415c2.787-6.924,4.41-14.441,4.41-22.343c0-33.133-26.952-60.076-60.076-60.076
	s-60.076,26.943-60.076,60.076c0,33.133,26.952,60.076,60.076,60.076c13.227,0,25.358-4.431,35.294-11.703
	c22.291,14.807,52.402,31.769,90.182,46.623c-74.714,9.887-136.417,21.618-180.482,31.195
	c-12.698-26.171-39.299-44.403-70.283-44.403c-43.19,0-78.336,35.146-78.336,78.345c0,43.18,35.146,78.326,78.336,78.326
	c43.189,0,78.335-35.146,78.335-78.326c0-0.724-0.193-1.392-0.212-2.107c66.475-14.422,173.958-33.867,305.526-43.961
	c-60.179,33.189-105.808,72.541-136.178,103.331c-9.346-4.798-19.774-7.761-30.979-7.761c-37.705,0-68.392,30.687-68.392,68.392
	c0,37.723,30.687,68.411,68.392,68.411c37.714,0,68.402-30.687,68.402-68.411c0-14.497-4.605-27.903-12.338-38.985
	c40.499-40.574,108.915-96.896,201.719-130.161c25.024-0.922,50.711-1.421,76.908-1.468
	c-58.46,38.881-101.513,85.203-129.242,120.434c-7.206-2.69-14.906-4.365-23.039-4.365c-36.567,0-66.313,29.747-66.313,66.323
	c0,36.557,29.746,66.303,66.313,66.303s66.322-29.746,66.322-66.303c0-16.463-6.251-31.355-16.216-42.964
	c33.133-41.656,88.867-99.662,165.728-138.647c11.28,0.32,22.724,0.837,34.166,1.364c5.035,3.396,10.141,6.764,15.468,9.972
	c-33.288,14.506-64.497,29.68-87.724,68.9c-5.663,9.567-9.455,20.508-12.086,32.042c-21.646,8.486-73.357,35.4-100.841,106.078
	c-16.595,42.691-22.183,67.828-26.67,88.016c-4.299,19.342-7.404,33.302-18.382,55.711c-26.35,53.792-21.439,120.923,13.848,189.071
	c28.763,55.532,72.066,102.645,85.916,117.029c0.47,7.084,1.239,14.271,2.73,21.675c16.595,82.409,96.059,215.28,183.539,274.17
	c41.506,27.94,94.159,35.146,146.229,35.146c29.991,0,59.803-2.39,87.16-4.591c27.667-2.22,53.801-4.328,75.033-3.613
	c53.312,1.853,178.431,5.974,238.742-74.271c10.087,3.236,25.127,6.576,44.892,6.576c9.786,0,20.791-0.931,32.747-2.991
	c-2.733,1.373-5.419,2.606-8.175,4.083c-73.256,39.285-99.86,101.224-100.951,103.858c-2.192,5.23-1.524,11.214,1.769,15.823
	c3.086,4.346,8.062,6.886,13.34,6.886c0.348,0,0.696-0.019,1.044-0.037c3.462-0.226,85.184-5.739,135.599-33.284
	c25.929-14.149,46.355-32.418,62.035-50.142c-1.451,8.166-2.952,16.19-4.579,24.046c-27.216,51.327-76.591,87.197-113.402,108.289
	c-10.259-10.969-24.741-17.94-40.913-17.94c-30.969,0-56.172,25.193-56.172,56.163c0,30.969,25.203,56.162,56.172,56.162
	c30.969,0,56.162-25.193,56.162-56.162c0-2.916-0.431-5.71-0.861-8.505c23.636-13.349,52.244-32.437,78.378-57.781
	c-20.325,65.165-44.415,114.47-62.557,146.258c-4.447-1.185-9.033-2.022-13.85-2.022c-29.85,0-54.13,24.29-54.13,54.131
	c0,29.84,24.281,54.13,54.13,54.13c29.84,0,54.121-24.291,54.121-54.13c0-12.973-4.774-24.733-12.413-34.065
	c18.424-31.675,42.402-80.029,63.112-143.689c9.932,32.521,23.347,61.6,34.894,83.481c-7.121,8.495-11.585,19.295-11.585,31.224
	c0,26.98,21.957,48.938,48.938,48.938s48.938-21.957,48.938-48.938c0-26.98-21.957-48.919-48.938-48.919
	c-3.088,0-6.087,0.358-9.017,0.913c-17.509-33.509-39.441-84.46-43.89-135.928c3.097-13.218,6.012-26.802,8.627-40.96
	c15.038,26.171,32.225,47.714,46.668,63.481c-2.18,5.24-3.413,10.979-3.413,17.009c0,24.534,19.963,44.497,44.497,44.497
	c24.535,0,44.497-19.963,44.497-44.497c0-24.535-19.963-44.498-44.497-44.498c-6.458,0-12.559,1.449-18.104,3.942
	c-20.175-22.314-46.144-56.821-60.956-98.806c0.696-5.889,1.233-11.994,1.813-18.034c37.249,27.818,81.833,51.995,134.67,63.133
	c7.293,1.534,14.511,2.832,21.684,4.017c3.742,5.108,9.943,13.086,18.053,22.324c-6.228,17.122-12.164,34.977-17.451,54.262
	c-54.3,198.083,34.948,344.839,38.777,350.991c0.153,0.245,0.438,0.329,0.602,0.564c1.434,2.079,3.189,3.905,5.433,5.137
	c0.108,0.056,0.235,0.056,0.343,0.113c1.768,0.922,3.7,1.599,5.804,1.825c0.578,0.055,1.157,0.094,1.738,0.094
	c0.002,0,0.002,0,0.002,0h0.009c2.54,0,4.871-0.753,7.046-1.806c0.259-0.122,0.546-0.066,0.8-0.207
	c6.875-3.753,168.417-93.802,223.601-263.455c6.118,10.574,12.496,21.28,19.516,32.314
	C2162,3933,2364.241,3957.253,2372.802,3958.193c0.602,0.075,1.204,0.113,1.806,0.113c2.018,0,3.994-0.396,5.856-1.11
	c0.543-0.207,0.992-0.64,1.515-0.904c1.176-0.602,2.387-1.147,3.401-2.032c0.092-0.075,0.127-0.207,0.217-0.282
	c0.104-0.094,0.245-0.131,0.348-0.225c0.903-0.866,1.393-1.957,2.053-2.954c0.491-0.744,1.138-1.355,1.503-2.164
	c0.811-1.806,1.211-3.725,1.336-5.673c0.014-0.216,0.146-0.405,0.151-0.63v-0.057c0,0,0,0,0-0.01
	c0.207-8.109,3.104-191.102-127.904-379.938c-3.292-4.741-6.576-9.05-9.859-13.434c0.51-0.659,1.105-1.195,1.609-1.863
	c8.885-11.731,17.747-26.651,24.45-44.76c5.677-2.502,10.814-5.08,16.026-7.639c-3.431,30.414,2.058,56.774,15.771,73.717
	c8.401,10.367,19.351,16.162,30.828,16.294h0.338c27.893,0,50.876-39.887,53.519-93.021c0.619-12.512-1.018-23.763-3.556-34.149
	c34.913,32.615,66.036,65.974,93.239,97.875c-13.636,11.533-34.478,32.578-47.143,64.987c-13.622,34.864-14.394,67.564-2.117,89.709
	c6.472,11.666,16.247,19.267,27.526,21.393c1.797,0.339,3.603,0.508,5.419,0.508c25.965,0,52.672-34.093,63.754-82.767
	c2.484-10.913,3.278-21.289,2.926-30.979c53.015,70.48,81.482,122.852,82.108,124.018c0.353,0.658,0.852,1.167,1.275,1.75
	c-5.725,16.792-12.994,45.984-6.882,80.923c6.454,36.877,22.766,65.231,44.751,77.781c7.262,4.139,14.798,6.246,22.06,6.246
	c4.318,0,8.552-0.733,12.55-2.239c26.275-9.877,33.34-55.56,16.444-106.248c-13.319-39.944-43.185-61.129-60.321-70.415
	c-0.313-1.091-0.419-2.22-0.979-3.264c-1.465-2.738-11.331-20.95-29.219-49.032c5.658,2.502,11.585,4.845,18.034,6.774
	c15.4,4.628,30.207,6.924,43.763,6.924c17.997,0,33.782-4.045,45.805-12.041c11.12-7.394,17.902-17.761,19.106-29.163
	c2.954-27.921-34.704-54.714-87.583-62.315c-39.334-5.654-70.052,9.238-86.859,20.32c-22.404-30.461-49.558-64.592-81.313-99.851
	c4.294,1.101,8.655,2.154,13.297,2.916c9.398,1.543,18.476,2.295,27.121,2.295c25.325,0,46.821-6.51,61.054-18.909
	c10.075-8.749,15.466-19.906,15.202-31.365c-0.668-28.072-41.449-49.803-94.874-50.537c-40.33-1.157-68.933,18.1-83.983,31.458
	c-10.83-10.358-22.331-20.602-33.923-30.81c21.371-35.626,23.638-71.929,25.393-104.131c0.649-11.815,1.261-22.992,2.822-33.302
	c0.08-0.536,0.207-1.11,0.287-1.637c8.236,2.079,16.463,4.196,24.732,6.153l99.881,22.023c16.666,3.565,33.234,7.573,49.977,10.762
	l2.441,0.424c10.872,48.128,59.429,220.115,219.694,349.505c134.028,108.186,371.33,136.634,381.359,137.782
	c0.63,0.075,1.261,0.113,1.882,0.113c4.883,0,9.548-2.182,12.681-6.021c3.528-4.309,4.628-10.123,2.897-15.428
	c-3.076-9.464-77.169-233.041-237.698-343.917c-52.943-36.558-110.109-65.589-163.129-88.148l32.672,3.998
	c46.767,5.099,93.675,9.201,140.656,12.22c142.713,94.018,310.147,122.936,441.698,122.936c93.717,0,169.221-14.675,204.593-30.931
	c149.814-68.881,315.036-191.893,316.692-193.135c4.619-3.443,7.074-9.069,6.482-14.807
	C3957.87,3242.156,3954.314,3237.151,3949.083,3234.724z M2597.404,2907.646c44.149-15.447,82.851-22.296,110.039-25.306
	c-31.807,30.254-83.896,75.297-129.823,94.093c-51.177,20.96-97.16,30.668-128.506,35.165
	C2483.499,2978.07,2542.173,2926.95,2597.404,2907.646z M1423.676,876.204c-59.399,97.066-115.979,143.05-151.417,164.301
	c94.627-238.855,192.613-368.264,243.65-424.821C1502.385,680.821,1473.422,794.923,1423.676,876.204z M1287.541,789.844
	c69.051-133.651,152.349-180.773,204.207-197.359c-53.975,58.373-154.369,189.541-250.713,433.777
	C1232.625,980.899,1231.265,898.782,1287.541,789.844z M1421.399,1268.325c-102.583,60.546-176.018,63.717-216.62,57.686
	c75.264-37.818,246.515-128.778,378.228-235.271C1553.583,1145.379,1501.546,1221.052,1421.399,1268.325z M1355.011,1119.574
	c103.258-69.587,190.176-79.117,235.698-78.044c-130.1,112.964-320.49,214.584-400.373,254.951
	C1210.543,1255.408,1256.432,1186.01,1355.011,1119.574z M725.042,686.042c71.318-85.288,156.314-122.259,194.762-135.524
	c-3.01,59.925-18.175,225.101-94.244,301.17c-55.852,55.842-114.051,68.411-151.747,69.587c8.476-6.764,16.83-13.65,24.582-21.129
	c18.464-17.997,35.76-37,51.038-57.423c15.369-20.329,29.445-41.496,42.188-63.378c12.709-21.985,24.241-44.243,34.189-67.959
	c1.622-3.894-0.031-8.457-3.867-10.357c-3.993-1.976-8.831-0.329-10.804,3.66l-0.167,0.339
	c-21.562,43.651-49.168,85.241-80.584,122.362c-15.668,18.693-33.046,35.711-51.16,51.515c-10,8.636-20.567,16.388-31.402,23.66
	C653.804,851.265,671.946,749.514,725.042,686.042z M562.208,887.032c-22.796-12.747-43.493-29.125-62.258-47.47
	c-18.874-18.288-35.48-39.098-49.422-61.647c-13.951-22.343-25.769-46.962-33.392-71.581l-0.197-0.649
	c-1.268-4.055-5.506-6.463-9.678-5.4c-4.313,1.091-6.922,5.485-5.826,9.793c7.098,27.921,17.978,53.434,31.586,78.11
	c13.53,24.582,30.059,47.649,49.326,68.345c16.639,18.034,35.219,34.507,55.577,48.514
	c-47.985-11.966-105.744-35.598-148.896-82.353c-88.082-95.41-81.835-245.082-76.031-299.909
	c36.623,17.78,118.882,63.613,189.663,145.082c70.226,80.819,96.84,191.338,105.73,241.15
	C592.439,902.921,576.799,895.997,562.208,887.032z M613.538,606.624c-29.396-47.451-76.673-146.332-58.168-270.2
	c21.336-142.767,124.535-255.318,163.68-293.531c21.308,43.858,68.862,163.934,38.862,313.343
	c-26.703,133.021-87.696,216.625-121.728,254.725c5.306-115.448,18.34-230.764,43.307-343.305l0.054-0.245
	c1.115-5.024-2.02-10.028-7.046-11.204c-5.064-1.185-10.127,1.966-11.313,7.027C634.751,376.217,620.328,491.186,613.538,606.624z
	 M615.318,1293.433c-26.51-8.532-51.868-20.658-75.906-35.014c-24.139-14.234-46.809-31.176-67.555-50.283
	c-20.696-18.928-40.111-40.349-55.647-63.03l-0.346-0.508c-2.418-3.518-7.194-4.553-10.868-2.286
	c-3.789,2.333-4.97,7.3-2.634,11.091c15.887,25.767,34.577,48.26,55.419,69.361c20.75,21.035,43.716,40,68.557,56.322
	c24.725,16.435,51.174,30.668,79.164,41.223c2.714,1.129,5.508,2.013,8.255,3.048c-56.685,4.666-133.21,2.615-188.172-31.12
	c-118.844-72.983-148.788-224.536-155.702-276.484c33.246,2.578,111.243,14.864,210.586,71.779
	c100.236,57.414,162.163,168.233,186.557,219.269C649.509,1303.565,632.134,1299.52,615.318,1293.433z M406.882,2393.492
	c119.343,44.798,180.369,115.448,207.19,156.051C480.665,2509.674,427.127,2435.186,406.882,2393.492z M1759.324,2723.975
	c33.82-6.077,72.004-3.104,108.947-0.244c34.779,2.709,67.63,5.268,95.58,0.244c45.144-8.043,115.269,19.775,140.253,82.25
	c-44.49,5.419-78.094,28.081-91.946,38.881c-10.423-2.38-21.698-3.97-34.064-4.365c-65.711-2.295-99.305,7.639-126.276,15.485
	c-15.014,4.365-26.877,7.808-41.28,8.147c-52.531,1.28-111.422,51.308-142.438,100.058c-2.895,4.553-5.685,9.718-8.384,15.297
	c-0.341-0.508-0.614-0.997-0.957-1.505c-0.696-1.035-1.28-1.9-1.731-2.577c-0.522-1.195-1.644-2.089-2.46-3.142
	c0.263-4.76,0.776-9.351,0.823-14.261c0.409-43.688-8.784-92.598-24.76-137.085
	C1673.297,2772.621,1724.366,2730.278,1759.324,2723.975z M1966.165,3110.941c-20.301-1.9-39.803,6.867-51.224,23.086
	c-11.317,16.068-13.245,36.915-5.155,55.768c8.043,18.758,24.629,31.703,44.356,34.6c0.009,0,0.009,0,0.009,0
	c1.919,0.292,3.841,0.358,5.757,0.433c-0.915,0.941-1.693,2.089-2.785,2.747c-7.404,4.534-20.452,3.255-37.714-3.594
	c-8.485-3.368-17.018-14.318-22.286-28.561c-8.034-21.712-7.093-45.588,2.502-63.82c9.116-17.329,25.353-29.916,44.554-34.544
	c5.136-1.242,10.292-1.844,15.353-1.844c11.919,0,23.283,3.387,32.55,9.897c7.62,5.362,9.534,13.97,8.744,23.104
	C1991.81,3118.645,1979.853,3112.276,1966.165,3110.941z M1979.42,3183.322c-5.005,6.585-12.738,9.821-20.48,8.673
	c-12.098-1.787-17.347-11.176-19.041-15.127c-3.575-8.316-2.888-17.291,1.834-23.989c4.638-6.566,12.738-10.329,21.242-9.313
	c3.979,0.376,13.754,2.465,18.645,13.471C1985.789,3166.407,1984.98,3175.984,1979.42,3183.322z M2000.926,3207.922
	c1.538-1.59,3.231-3.001,4.591-4.788c4.346-5.729,7.013-12.183,8.904-18.843c17.279-27.282,35.182-78.797-3.485-105.975
	c-20.913-14.732-48.072-19.474-74.432-13.114c-28.364,6.849-52.371,25.475-65.871,51.12c-5.174,9.84-8.631,20.715-10.357,32.061
	c-1.632-2.427-3.025-5.09-4.092-8.015c-6.661-18.25-0.725-42.126,16.275-65.532c30.057-41.374,84.451-48.768,138.543-18.909
	c21.524,11.891,35.617,29.897,41.891,53.51c7.639,28.787,2.239,63.312-14.092,90.123c-13.034,21.392-29.342,24.779-41.282,23.575
	C1998.997,3218.477,2000.088,3213.359,2000.926,3207.922z M1860.303,3189.446c0.447,0.207,0.938,0.329,1.392,0.527
	c1.195,5.673,2.658,11.308,4.694,16.811c8.646,23.387,23.556,40.753,40.922,47.639c14.29,5.682,27.216,8.523,38.683,8.523
	c10.659,0,20.057-2.446,28.138-7.357c1.496-0.903,2.648-2.267,4.031-3.321c6.929,2.192,14.943,3.772,23.683,3.772
	c21.496,0,46.454-9.106,64.93-39.436c20.828-34.168,27.639-78.458,17.78-115.58c-8.523-32.117-28.485-57.63-57.714-73.773
	c-68.42-37.818-141.13-26.435-180.896,28.316c-23.519,32.381-31.007,67.395-20.537,96.031c1.839,5.042,4.281,9.671,7.07,13.989
	c-2.498,7.884-5.562,20.104-6.383,34.873c-11.468-6.566-21.186-17.159-27.921-30.819c-14.064-28.542-12.39-63.745,4.487-94.187
	c36.407-65.645,89.164-100.998,156.803-105.1c71.139-3.97,114.301,32.004,124.197,67.564c6.585,23.613,13.735,39.944,20.649,55.729
	c6.83,15.598,13.274,30.33,19.069,51.854c9.577,35.579-58.138,104.253-91.478,138.082c-13.641,13.829-37.3,21.092-64.939,19.756
	c-35.946-1.675-69.944-16.971-88.74-39.944c-10.894-13.321-16.218-27.432-18.373-40.565c-0.047-1.091-0.207-2.164-0.47-3.217
	C1857.935,3208.242,1858.812,3197.875,1860.303,3189.446z M1824.411,3235.166c1.672,0.593,3.196,1.543,4.904,2.042
	c3.725,15.391,10.913,31.496,23.547,46.924c24.497,29.953,67.639,49.859,112.579,51.948c2.549,0.113,5.08,0.17,7.582,0.17
	c33.782,0,63.491-10.687,83.021-30.48c45.175-45.814,113.444-115.053,98.985-168.77c-6.435-23.914-13.688-40.471-20.696-56.482
	c-6.764-15.428-13.142-30.01-19.097-51.402c-7.185-25.786-26.618-51.863-56.896-69.634c19.478-5.136,48.051-5.588,82.908,15.09
	c64.968,38.552,60.518,88.712,57.564,121.901l-0.395,4.553c-0.959,11.59-3.114,22.051-5.616,34.149
	c-3.848,18.683-8.646,41.919-10.301,77.461c-2.361,50.518-54.432,122.146-113.708,156.408
	c-56.163,32.493-182.674,30.48-226.644-33.152C1812.344,3292.768,1818.101,3254.573,1824.411,3235.166z M2016.283,2942.557
	c-17.528-4.299-37.133-6.228-58.792-4.901c-79.549,4.798-141.281,45.833-183.482,121.92c-22.089,39.812-24.036,86.379-5.221,124.554
	c6.827,13.838,15.983,25.447,26.712,34.572c-9.205,24.092-20.971,76.981,19.685,135.815c33.293,48.185,98.439,68.035,160.03,68.035
	c42.098,0,82.531-9.276,109.973-25.137c8.455-4.892,16.745-10.423,24.801-16.482c0.8,45.278-14.443,91.243-54.321,109.597
	c-48.42,22.277-120.067,5.927-141.366-10.066c-27.234-20.395-109.587-66.398-149.343-87.865
	c-27.674-14.948-69.615-71.704-93.345-126.69c19.502-39.088,37.263-80.339,44.342-120.707c6.157-35.062-5.87-79.117-35.17-131.027
	c4.736-12.888,9.772-24.008,14.953-32.155c29.746-46.755,80.518-84.027,115.589-84.874c18.664-0.47,33.707-4.835,49.634-9.464
	c24.741-7.187,55.607-16.011,116.088-14.205c56.221,1.806,82.536,30.151,94.3,50.537
	C2045.314,2926.169,2026.135,2936.122,2016.283,2942.557z M1476.037,2612.008c33.425,34.3,44.158,56.351,63.632,96.388
	c9.473,19.474,21.261,43.707,38.514,74.996c47.743,86.671,73.298,237.152-9.088,309.467c-2.714-20.734-6.548-42.625-11.609-66.962
	c-20.358-98.025-92.715-118.402-146.069-129.286c-6.957-42.155-20.522-77.414-41.139-104.902
	c-27.874-37.178-55.796-52.362-80.424-65.758c-18.909-10.292-35.24-19.172-51.092-36.783
	c-37.404-41.525-122.128-55.278-185.016-29.916c-9.676,3.895-21.146,9.784-32.583,18.231c-5.273-4.13-12.239-9.05-20.56-13.829
	c16.482-31.129,65.953-106.116,159.183-103.087l35.908,1.016C1306.977,2564.576,1433.102,2567.981,1476.037,2612.008z
	 M872.993,2935.003c-0.198-8.806-0.395-17.912,0.414-28.542c2.135-27.639,32.22-51.948,58.975-57.291
	c33.227-6.642,58.298-26.416,90.029-51.44l7.827-6.171c33.97-26.661,55.118-40.415,95.363-12.813
	c21.129,14.487,29.784,46.04,32.795,73.566c-23.947-20.602-49.17-30.367-76.059-29.05c-34.393,1.317-73.829,25.588-93.754,57.705
	c-13.914,22.446-17.743,47.15-11.223,70.838c-20.32,16.331-38.289,45.476-45.965,76.012c-8.485,33.735-3.848,64.874,13.396,90.067
	c39.991,58.401,96.285,63.369,117.48,65.231l3.01,0.282c3.895,0.376,11.543,2.653,19.652,5.042
	c5.428,1.609,11.406,3.311,17.599,4.958c-21.884,14.375-52.045,25.522-85.944,25.522c-41.167,0-70.866-19.887-120.058-52.851
	l-11.985-8.015c-49.775-33.17-37.329-121.187-23.763-152.288C873.905,2975.68,873.463,2955.925,872.993,2935.003z
	 M1086.344,3076.077c12.945,7.921,26.802,11.74,40.141,11.74c4.057,0,7.973-0.762,11.891-1.458
	c-1.326,3.339-3.017,6.717-5.645,9.925c-9.455,11.571-26.2,17.422-49.765,17.422c-14.346,0-28.834-7.676-38.749-20.527
	c-6.482-8.41-16.388-26.246-9.831-51.251c4.031-15.334,11.82-23.735,19.624-28.608c-0.118,2.794-0.517,5.522-0.301,8.382
	C1055.403,3044.28,1067.604,3064.6,1086.344,3076.077z M1103.446,3048.118c-9.774-5.983-16.152-16.764-17.065-28.862
	c-0.828-11.063,3.076-21.092,10.706-27.526c7.733-6.51,17.79-12.606,28.269-12.606c6.058,0,12.258,2.032,18.241,7.206
	c15.005,12.945,20.405,38.138,11.317,52.832C1144.237,3056.434,1123.07,3060.14,1103.446,3048.118z M1075.995,2966.668
	c-2.641,2.22-4.736,4.883-6.938,7.46c-21.87,1.948-54.989,16.153-66.365,59.483c-7.385,28.166-1.712,57.178,15.588,79.587
	c16.068,20.847,40.254,33.283,64.686,33.283c58.636,0,79.192-30.423,86.228-48.561c3.201-8.26,5.574-20.358,4.906-30.772
	c3.119-3.302,6.188-6.689,8.697-10.752c17.657-28.599,9.68-71.158-17.79-94.884c-1.035-0.894-2.157-1.505-3.218-2.314
	c-0.654-13.584-4.233-38.495-21.082-57.272c-13.067-14.563-30.969-22.371-53.199-23.199c-49.615-2.126-66.078,24.064-78.213,43.011
	c-0.743,1.148-1.467,2.295-2.183,3.387c0.687-9.012,3.801-17.987,9.314-26.886c15.776-25.419,46.538-41.449,67.178-42.24
	c31.618-1.411,61.807,20.697,91.769,67.075c8.702,13.453,20.866,24.347,33.745,35.88c27.837,24.93,54.13,48.468,50.17,98.891
	c-5.428,69.088-54.526,96.727-94.771,107.734c-21.496,5.983-49.7-2.446-70.264-8.542c-10.499-3.123-18.787-5.588-25.814-6.265
	l-3.293-0.301c-20.151-1.769-62.07-5.475-93.322-51.101c-14.892-21.75-12.926-46.567-8.655-63.575
	c7.498-29.803,26.905-55.354,41.365-62.898c0.075-0.038,0.141-0.075,0.207-0.094c16.143-8.41,24.638-21.675,32.136-33.378
	c11.242-17.535,18.712-29.351,49.408-27.959c13.142,0.49,22.926,4.497,29.935,12.23c5.997,6.632,9.163,15.089,10.915,22.794
	C1110.333,2946.038,1092.689,2952.613,1075.995,2966.668z M1145.585,3200.236c0.774,0.009,1.536,0.15,2.312,0.15
	c8.476,0,16.981-0.922,25.287-3.198c41.233-11.289,111.488-44.064,118.769-136.784c5.23-66.586-31.477-99.456-60.97-125.853
	c-11.195-10.028-21.769-19.492-28.081-29.276c-3.53-5.466-7.112-10.404-10.696-15.315c1.143-23.349,1.312-104.366-48.072-138.233
	c-62.042-42.578-103.698-9.84-134.122,14.055l-7.893,6.209c-0.682,0.536-1.247,0.96-1.919,1.496
	c8.511-49.455,38.932-73.03,65.795-83.849c54.243-21.806,123.087-6.698,148.421,21.468c19.605,21.769,40.029,32.888,59.775,43.632
	c23.801,12.945,46.285,25.174,69.879,56.614c32.427,43.255,45.306,110.255,38.26,199.118c-1.487,18.74,0.959,38.232,3.556,58.872
	c5.842,46.51,11.872,94.601-26.059,141.281c-39.483,48.637-89.135,45.871-157.838,41.976c-23.942-1.336-48.702-2.747-75.288-1.919
	c-28.925,0.866-49.351-1.581-63.973-5.099C1095.13,3237.405,1125.06,3221.309,1145.585,3200.236z M1430.294,1942.97
	c68.686,25.165,88.345,86.962,92.414,135.806c5.955,71.365-36.98,201.131-53.133,249.993
	c-13.001,39.285-59.013,77.668-95.975,108.506c-18.1,15.108-33.716,28.128-44.3,40.038c-14.521,16.331-39.401,35.72-66.722,51.741
	c-6.599-6.999-17.79-18.072-32.738-30.057c44.149-13.641,81.595-31.854,93.75-55.984c8.241-16.35,15.983-34.864,24.177-54.488
	c14.036-33.603,28.552-68.336,46.745-94.884c14.459-21.072,84.789-129.71,49.812-197.951c-7.168-13.998-14.149-26.98-20.743-39.229
	c-5.983-11.119-11.491-21.571-16.698-31.778C1412.754,2009.988,1424.569,1977.551,1430.294,1942.97z M1233.547,2129.82
	c2.041-12.315,6.849-47.489,3.095-86.436c46.313,39.934,44.467,114.846,34.238,191.629c-6.294,47.188-36.915,79.305-93.623,98.195
	c-13.999,4.666-27.724,10.781-42.268,17.234c-20.15,8.956-42.992,19.116-70.622,26.999c-14.826,4.233-30.471,5.25-45.424,3.584
	c-1.768-0.602-3.551-0.875-5.423-0.856c-23.857-3.763-45.448-14.403-58.138-30.631c-14.13-18.1-34.619-32.155-54.441-45.739
	c-17.47-11.985-35.532-24.384-47.687-38.702c-22.766-26.83-22.804-70.894-0.104-112.268c8.796-16.049,15.278-31.383,21.553-46.209
	c12.54-29.671,23.377-55.297,49.596-80.904c20.471-20.019,46.484-15.88,63.392-9.802c-13.401,19.238-20.708,42.362-20.833,66.661
	c-1.665,0.978-3.34,1.966-4.929,2.916c-7.225,4.308-14.045,8.372-20.96,11.27c-36.971,15.579-46.821,72.927-34.751,117.141
	c7.768,28.495,30.217,51.534,57.467,63.218c2.703,11.59,9.29,30.32,25.393,44.046c12.954,11.044,29.107,16.614,48.11,16.614
	c2.719,0,5.494-0.113,8.316-0.339c43.321-3.499,69.841-23.744,89.211-38.533c8.579-6.547,16.689-12.738,21.891-13.641
	c28.467-4.967,78.524-29.652,85.551-90.65C1245.096,2169.153,1240.894,2148.616,1233.547,2129.82z M1000.294,2175.578
	c-1.75,16.896,2.992,31.985,13.716,43.631c7.216,7.827,16.924,13.406,28.14,17.018c-8.187,7.686-18.897,14.488-33.408,16.172
	c-27.263,3.18-62.164-15.052-70.913-47.113c-8.852-32.437-0.997-71.214,15.861-78.308c9.022-3.801,17.159-8.655,25.024-13.358
	c4.097-2.437,8.144-4.836,12.281-7.084c0.061-0.028,0.118-0.066,0.179-0.103c13.074-7.093,27.117-12.625,46.863-12.625
	c11.983,0,20.925,5.983,27.505,13.293C1036.663,2109.98,1004.784,2132.021,1000.294,2175.578z M1070.342,2139.416
	c0.48-0.037,1.044-0.056,1.693-0.056c3.683,0,9.798,0.621,15.597,3.895c0.263,0.169,0.487,0.367,0.758,0.508
	c5.612,3.434,10.821,9.417,13.071,20.019c2.39,11.232,3.801,26.435-3.029,35.052c-5.748,7.244-17.084,8.975-25.588,9.144
	c-15.118,0.188-27.996-3.669-34.732-10.988c-4.29-4.647-6.002-10.555-5.231-18.062
	C1035.581,2152.868,1053.634,2140.3,1070.342,2139.416z M1209.609,2190.855c-5.936,51.478-53.256,61.186-58.646,62.127
	c-13.086,2.296-23.763,10.442-36.124,19.887c-17.931,13.679-38.241,29.182-71.967,31.91c-23.1,1.825-35.003-8.448-41.341-19.304
	c0.231,0,0.452,0.057,0.682,0.057c3.424,0,6.858-0.188,10.282-0.583c38.053-4.403,58.707-30.113,69.432-44.789
	c22.728-2.446,35.438-12.455,42.178-20.969c11.844-14.939,15.014-35.88,9.417-62.221c-3.441-16.153-11.919-29.125-23.587-37.884
	c-5.88-15.814-25.873-58.053-71.899-58.053c-14.25,0-26.383,2.296-37.082,5.673c4.019-21.712,15.529-36.143,23.319-43.735
	c15.024-14.619,34.394-22.258,51.713-20.339c48.147,5.231,76.53,42.126,91.864,72.136c5.315,10.423,10.734,19.925,15.889,28.956
	C1201.086,2134.129,1213.617,2156.104,1209.609,2190.855z M1197.031,2059.867c-27.253-53.359-67.875-84.404-117.499-89.822
	c-22.761-2.333-47.23,5.193-67.539,20.508c-27.514-13.359-74.871-23.152-110.591,11.722c-30.932,30.217-44.121,61.412-56.887,91.591
	c-5.945,14.074-12.098,28.636-20.094,43.199c-29.285,53.378-27.78,111.948,3.848,149.221c14.986,17.667,34.892,31.327,54.14,44.535
	c18.58,12.738,36.134,24.779,47.159,38.89c8.9,11.392,20.633,20.743,34.032,27.996c-17.202,1.966-33.867-0.395-47.164-3.876
	c-41.929-10.988-82.494-40.001-96.464-68.975c-10.536-21.844-23.284-39.586-35.617-56.727c-19.407-27-37.743-52.494-43.951-90.857
	c-8.947-55.297,13.161-107.094,71.685-167.96c45.269-47.094,87.978-71.101,138.478-77.837c25.804-3.443,45.146-15.428,62.202-26.021
	c15.842-9.821,29.511-18.307,46.905-20.339c33.171-4.158,83.736,34.187,122.993,92.607c18.547,27.592,22.796,66.172,22.54,97.386
	C1202.488,2070.224,1199.75,2065.182,1197.031,2059.867z M908.12,2425.515c14.61,3.838,28.937,5.738,42.71,5.719
	c24.09,0,46.261-6.124,65.337-17.507c5.344,0.565,10.737,0.894,16.169,0.894c13.716,0,27.592-1.825,41.035-5.682
	c29.831-8.504,53.792-19.153,74.93-28.561c13.801-6.115,26.83-11.91,39.314-16.087c68.796-22.917,107.744-64.949,115.74-124.95
	c8.368-62.804,25.207-191.564-75.078-240.003c-4.269-14.102-10.224-27.714-18.422-39.906
	c-35.899-53.416-97.621-113.604-153.99-106.869c-15.144,1.768-27.705,6.839-39.316,12.907c-9.262-10.235-25.271-24.958-47.47-35.823
	c34.271-27.122,100.954-34.789,124.783-20.038c21.345,13.171,45.127,21.148,70.302,29.596c21.487,7.206,43.707,14.657,68.674,26.303
	c55.504,25.908,110.989,83.933,119.926,114.714c4.967,17.094,12.286,33.867,20.847,51.214c0.042,0.113,0.118,0.216,0.164,0.329
	c6.378,12.916,13.361,26.106,20.946,40.217c6.5,12.079,13.377,24.854,20.442,38.646c19.238,37.536-10.085,109.672-47.667,164.499
	c-20.104,29.313-35.287,65.645-49.963,100.773c-7.968,19.059-15.494,37.065-23.199,52.361c-7.921,15.72-45.713,32.437-99.62,46.388
	c-35.678-21.035-81.297-36.915-130.664-26.463c-41.35,8.833-75.147,24.647-104.752,42.813
	c-40.551-12.729-79.451-34.13-106.798-51.553c20.748-2.991,38.745-8.307,51-15.4C905.048,2424.499,906.563,2425.11,908.12,2425.515z
	 M1320.382,1607.971c-53.989,26.096-118.952,28.89-165.308,26.397c141.869-62.926,278.333-147.198,354.933-197.406
	C1472.322,1490.716,1408.09,1565.6,1320.382,1607.971z M1294.399,1441.121c92.503-45.41,175.806-50.734,223.591-48.768
	c-69.29,46.576-228.464,148.6-391.853,218.939C1153.557,1563.38,1209.57,1482.767,1294.399,1441.121z M1093.752,1541.573
	c-3.824-18.97-8.694-39.569-14.815-60.815c21.25-58.04,27.717-116.38,28.001-164.605c13.477,7.416,25.42,13.208,34.646,17.336
	c0.028,0.038,0.057,0.066,0.085,0.104C1124.726,1397.978,1108.64,1467.16,1093.752,1541.573z M837.134,1475.542
	c5.428,9.041,11.037,18.128,17.288,27.366c12.354,18.26,28.542,35.231,46.579,50.781c-10.572,18.627-21.969,36.68-35.631,52.653
	c-11.959,13.763-25.214,26.021-39.502,36.463C822.945,1607.924,821.042,1541.95,837.134,1475.542z M799.198,1238.588
	c42.853,74.027,134.054,225.487,238.899,363.484c-51.113-25.09-122.139-66.699-156.544-117.527
	C812.383,1382.352,799.37,1291.777,799.198,1238.588z M887.626,1624.321c13.217-17.084,24.069-35.447,33.77-54.253
	c9.758,7.366,19.786,14.346,29.904,20.903c-22.773,15.805-46.294,28.533-67.607,37.987
	C884.973,1627.397,886.379,1625.911,887.626,1624.321z M982.053,1609.674c21.736,12.38,42.373,22.587,59.502,30.471
	c-3.608,0.997-7.229,2.041-10.875,3.086c-18.062,5.155-36.727,10.48-58.42,13.396c-13.641,1.825-27.705,2.785-42.597,3.781
	c-14.596,0.988-29.831,2.136-45.262,4.14C913.945,1652.43,949.056,1634.65,982.053,1609.674z M823.801,1215.662
	c46.317,20.932,123.176,67.658,177.885,162.617c39.925,69.314,58.448,154.555,66.79,209.579
	C959.625,1445.523,864.937,1287.092,823.801,1215.662z M1073.788,1296.145c1.092,37.443-1.356,83.576-12.831,131.048
	c-8.632-22.234-18.813-44.338-30.879-65.282c-16.721-29.022-35.244-53.794-54.362-74.979c16.105-11.479,31.894-21.624,46.38-30.333
	C1039.443,1272.019,1057.076,1285.153,1073.788,1296.145z M952.445,1263.099c-10.564-10.005-21.162-19.048-31.602-27.154
	c2.14-2.691,4.285-5.316,6.411-8.166c11.047-14.807,20.583-30.856,29.076-47.517c12.357,19.524,26.466,36.959,41.306,52.633
	C983.322,1241.723,968.005,1251.799,952.445,1263.099z M1113.146,1001.661c44.549,117.875,45.976,224.781,42.399,280.718
	c-1.108,3.951-2.244,7.714-3.349,11.703c-103.736-138.967-157.161-376.41-173.579-460.945
	C1013.742,849.186,1071.473,891.397,1113.146,1001.661z M948.163,848.856c16.809,85.297,62.639,282.223,149.571,423.316
	c-51.536-32.945-115.269-87.912-142.088-169.136C915.18,980.495,932.513,892.987,948.163,848.856z M762.173,1051.747
	c33.721-55.786,87.861-96.492,136.502-124.376c-3.589,49.163,1.294,111.563,25.852,185.938c3.58,10.837,7.888,21.082,12.493,31.064
	c-9.824,22.822-21.642,44.516-36.03,63.801c-2.253,3.02-4.523,5.814-6.787,8.636c-20.814-13.688-40.052-23.716-56.266-30.998
	c6.844-12.578,13.403-25.297,19.104-38.392c10.934-25.391,20.181-51.045,26.933-78.298c1.018-4.13-1.364-8.41-5.487-9.652
	c-4.264-1.298-8.765,1.11-10.059,5.372l-0.124,0.414c-7.557,24.93-17.949,49.906-29.669,73.613
	c-6.548,13.152-13.956,25.795-21.658,38.241c-14.69-5.494-24.224-7.874-25.678-8.222c-0.718-0.151-1.407,0.019-2.119-0.047
	c-1.331-0.132-2.627-0.282-3.975-0.085c-0.769,0.122-1.444,0.461-2.185,0.678c-1.117,0.329-2.263,0.451-3.33,1.035
	c-0.174,0.094-0.268,0.263-0.438,0.367c-0.788,0.461-1.374,1.167-2.077,1.75c-0.898,0.762-1.901,1.42-2.599,2.333
	c-0.513,0.658-0.755,1.505-1.164,2.248c-0.599,1.11-1.286,2.164-1.618,3.377c-0.031,0.113-0.11,0.179-0.139,0.292
	c-0.593,2.361-6.178,26.397-5.428,65.137c-6.362,7.008-12.71,14.036-19.467,20.593c-11.858,11.957-24.998,22.324-38.568,31.985
	C705.643,1249.463,707.6,1142.021,762.173,1051.747z M771.999,1305.371c-11.402,3.462-22.164,5.87-31.501,7.018
	c9.367-8.081,18.377-16.538,26.623-25.72c0.649-0.696,1.233-1.449,1.851-2.173C769.776,1291.223,770.759,1298.137,771.999,1305.371z
	 M500.141,1552.871c21.882,19.586,45.323,35.08,69.883,49.605c24.542,14.346,50.118,26.83,76.299,37.931
	c26.374,10.546,53.138,20.386,80.605,27.837c8.523,2.474,17.173,4.431,25.791,6.538c-48.775,12.315-127.092,20.527-214.838-15.014
	c-121.488-49.22-189.353-166.738-213.003-215.242c48.919-0.941,164.621,5.306,277.576,56.238
	c100.255,45.203,154.847,111.779,179.179,148.966c-15.946-2.568-31.844-5.456-47.576-9.191
	c-26.774-5.852-52.943-14.036-78.879-22.926c-25.727-9.445-50.991-20.245-75.325-32.888c-24.137-12.634-48.185-27.075-68.804-43.754
	l-0.477-0.386c-3.318-2.672-8.187-2.305-11.061,0.903C496.542,1544.809,496.824,1549.899,500.141,1552.871z M762.968,1495.561
	c-16.985-49.238-32.681-99.013-46.722-149.268c1.124,0.019,2.032,0.094,3.217,0.094c15.299,0,35.967-2.164,59.415-8.928
	c7.401,29.643,18.716,62.258,35.856,97.113c-16.122,47.818-22.115,96.915-23.476,138.158L762.968,1495.561z M803.218,1727.633
	c38.759-28.429,84.469-31.534,128.666-34.525c14.76-0.997,30.019-2.032,44.723-4.007c24.055-3.218,44.789-9.144,63.077-14.375
	c26.868-7.677,50.085-14.299,75.805-10.235c47.357,7.488,133.163,49.916,150.51,74.394c9.21,13.001,27.093,29.163,47.799,47.884
	c29.972,27.093,67.263,60.791,81.28,88.994c12.164,24.469,3.175,69.869-7.505,104.874c-1.103-3.18-2.415-6.397-3.333-9.558
	c-12.728-43.801-77-107-137.555-135.26c-26.642-12.437-50.791-20.527-72.099-27.677c-24.356-8.166-45.382-15.221-63.51-26.416
	c-41.458-25.56-137.532-9.755-176.978,36.247c-11.785-2.258-24.563-3.255-38.5-2.079c-61.299,5.306-96.295,35.899-124.413,60.471
	c-8.834,7.714-17.169,14.996-25.4,20.696l-2.258,1.562c-5.461,3.782-11.51,8.015-17.811,12.521
	C722.697,1847.672,757.471,1761.18,803.218,1727.633z M544.184,1745.696c60.081,33.208,106.123,68.195,141.681,101.854
	c-24.492,3.829-61.031,16.594-96.955,55.287c-173.758-87.696-283.383-163.831-331.041-199.645
	C315.879,1694.642,437.461,1686.73,544.184,1745.696z M251.664,1739.327c53.78,39.276,158.699,109.653,316.245,189.645
	c-13.182,18.589-25.946,41.054-37.564,68.806c-0.214,0.508-0.383,0.969-0.595,1.477c-30.532-11.891-62.84-27.404-96.923-48.194
	C326.016,1885.942,274.546,1794.765,251.664,1739.327z M489.564,2178.908c-8.77,0.969-17.695,1.872-27.018,2.577
	c-125.058,9.492-228.165-55.315-280.083-96.407c41.981,3.245,107.581,6.999,187.128,6.999c40.127,0,83.907-1.073,129.79-3.584
	C490.495,2124.448,488.351,2153.094,489.564,2178.908z M508.922,2055.238c-141.989,8.326-263.707,1.938-326.708-3.029
	c42.564-25.09,119.512-62.494,220.823-81.582c4.283,2.794,8.267,5.711,12.726,8.429c35.814,21.825,69.794,38.269,101.944,50.932
	C514.461,2038.756,511.526,2047.185,508.922,2055.238z M681.836,2471.978c-58.912-23.143-135.493-96.549-143.297-176.455
	c-2.107-21.6-5.324-40.113-8.438-58.006c-10.593-60.941-18.956-109.051,30.461-227.096
	c44.643-106.596,104.862-127.508,133.524-131.102c-2.004,19.351-1.592,37.997,1.447,54.987
	c-31.482,26.106-63.458,60.33-76.786,104.131c-13.537,44.478-11.468,78.289-9.069,117.405c1.242,20.226,2.531,41.148,1.91,66.303
	c-2.023,82.042,23.681,143.097,75.723,182.26C682.699,2417.96,677.833,2441.112,681.836,2471.978z M644.345,2222.935
	c0.659-26.548-0.734-49.144-1.957-69.088c-2.295-37.46-4.111-67.038,7.705-105.871c17.281-56.802,76.623-97.856,112.08-122.41
	l2.267-1.562c9.746-6.755,18.758-14.619,28.307-22.973c27.065-23.65,55.043-48.11,105.673-52.475
	c14.6-1.336,27.644,0.395,39.208,3.744c0.275,0.056,0.529,0.188,0.807,0.226c22.522,6.726,39.116,19.84,49.149,29.888
	c-12.865,7.761-25.718,14.497-41.346,16.585c-57.574,7.676-107.706,35.504-157.772,87.583
	c-66.37,69.032-91.158,129.446-80.405,195.919c7.441,46.003,28.918,75.862,49.69,104.761c11.515,15.992,23.415,32.55,32.7,51.816
	c12.037,24.977,37.656,48.918,68.486,66.2c-39.709,7.761-103.399,5.315-142.842-20.16
	C665.925,2352.682,642.463,2299.643,644.345,2222.935z M718.842,2490.407c-8.716-30.875-6.259-54.102-2.761-68.175
	c24.718,11.581,53.524,17.677,81.694,19.379c14.817,11.251,66.435,48.382,127.386,72.258c-11.703,8.542-22.842,17.187-33.599,25.569
	c-16.858,13.133-32.775,25.551-48.26,35.146c-7.465,4.628-14.836,8.551-22.141,12.192
	C769.755,2560.511,728.254,2523.738,718.842,2490.407z M724.637,2689.224c19.229-32.493,45.466-43.857,78.684-58.232
	c17.366-7.507,37.046-16.03,57.254-28.561c16.971-10.517,33.566-23.462,51.129-37.14c42.305-32.983,90.255-70.349,159.183-85.043
	c57.922-12.474,112.198,22.173,144.122,49.088c-6.148-0.169-12.296-0.338-18.429-0.508l-35.776-0.997
	c-112.955-3.838-171.418,86.52-190.209,122.607c-20.033-6.322-43.618-8.796-68.975-1.213
	c-45.156,13.547-80.198,58.646-111.121,98.421c-16.021,20.621-31.148,40.076-45.401,52.305
	c-6.529,5.588-13.754,11.308-21.326,17.291c-0.927,0.734-1.896,1.505-2.836,2.249
	C712.716,2781.596,705.46,2721.614,724.637,2689.224z M744.111,2842.941c7.921-6.265,15.475-12.249,22.305-18.118
	c16.773-14.375,32.888-35.109,49.954-57.066c27.912-35.899,59.54-76.595,94.667-87.15c35.866-10.772,68.881,7.413,86.012,19.812
	c-17.987,22.023-31.75,53.792-32.089,99.22c-13.011,8.504-25.428,14.685-38.994,17.394c-39.21,7.846-81.807,42.484-85.222,86.906
	c-0.95,12.267-0.715,22.635-0.508,31.797c0.433,19.417,0.753,33.453-9.482,56.934c-19.906,45.626-29.897,148.976,35.617,192.664
	l11.919,7.958c47.253,31.656,82.414,54.845,128.475,57.809c10.905,14.346,40.473,34.695,120.916,32.314
	c25.212-0.734,49.22,0.602,72.475,1.901c12.578,0.705,24.963,1.279,37.216,1.59c-31.661,46.858-123.75,130.01-215.251,116.774
	c-81.798-11.816-190.2-49.671-242.129-162.993c-17.545-38.288-41.082-71.986-63.848-104.592
	c-37.31-53.434-69.521-99.568-66.576-151.441C653.545,2914.626,701.664,2876.545,744.111,2842.941z M581.4,3128.363
	c-30.386-58.684-35.193-115.354-13.519-159.588c12.691-25.908,16.52-43.105,20.941-63.011c4.469-20.113,9.53-42.898,25.221-83.237
	c17.369-44.667,45.852-67.997,65.819-79.53c-0.833,40.64,8.163,81.196,12.973,99.728c-36.12,31.806-72.263,74.554-75.988,140.086
	c-3.185,56.144,25.645,104.168,59.528,153.454c-10.365,14.215-27.604,42.258-35.045,78.703
	C623.361,3193.905,599.074,3162.484,581.4,3128.363z M1134.002,3550.512c-23.133-0.715-50.132,1.392-78.75,3.688
	c-73.378,5.908-156.568,12.55-212.458-25.062c-80.913-54.469-154.385-177.311-169.729-253.474
	c-9.53-47.329,9.591-88.326,23.396-110.443c19.615,28.213,39.201,57.395,53.745,89.126c44.304,96.69,136.13,160.435,258.933,180.359
	c12.735,21.722,54.34,78.345,141.749,78.345c6.538,0,13.33-0.301,20.376-0.978c71.911-6.849,102.616-19.906,132.306-32.531
	c17.027-7.243,33.523-14.073,57.842-20.141C1328.134,3544.868,1223.899,3553.448,1134.002,3550.512z M1359.244,3426.108
	c-30.283,7.037-49.709,15.297-68.496,23.274c-28.655,12.192-55.73,23.688-122.588,30.066
	c-62.552,6.059-98.741-20.772-117.269-42.079c107.861-5.278,202.881-105.429,224.513-151.291
	c40.8-3.312,78.421-16.115,109.86-54.798c46.755-57.536,39.201-117.687,33.133-166.022c-2.38-18.928-4.619-36.821-3.406-52.193
	c2.34-29.511,2.319-56.67,0.466-81.948c54.203,12.521,95.678,32.738,109.95,101.44c19.078,91.817,20.555,145.025,6.557,237.161
	C1518.446,3358.695,1430.477,3409.57,1359.244,3426.108z M1476.216,3581.143c-25.927,14.149-63.387,21.807-89.944,25.701
	c13.396-18.42,35.955-42.898,70.33-61.337c35.569-19.059,69.521-28.918,92.983-33.923
	C1535.53,3532.883,1511.579,3561.839,1476.216,3581.143z M1564.9,3475.507c-8.372,1.195-20.118,3.283-34.078,6.726
	c9.215-5.673,17.279-11.825,24.598-18.307c3.163,2.944,6.31,5.898,9.621,8.833C1564.994,3473.673,1564.971,3474.613,1564.9,3475.507
	z M1481.955,3469.703c-44.831,16.99-76.476,14.205-93.623,10.028c4.276-9.473,7.799-19.812,10.511-31.063
	c73.566-25.588,151.601-82.4,165.521-174.019c8.443-55.617,11.244-98.609,8.359-143.567c37.62-25.118,62.917-62.174,74.728-109.371
	c35.776,60.236,39.892,97.028,36.237,117.847c-9.087,51.741-38.881,107.997-65.174,157.65c-7.272,13.735-14.29,26.98-20.583,39.568
	c-3.283,6.547-6.416,13.039-9.502,19.417C1564.241,3406.221,1545.125,3445.732,1481.955,3469.703z M1737.047,3528.612
	c-66.045-13.923-118.79-50.998-159.188-88.599c16.675-21.336,28.255-45.118,40.071-69.558c3.02-6.247,6.096-12.606,9.313-19.041
	c6.181-12.361,13.076-25.381,20.226-38.871c1.783-3.368,3.605-6.83,5.412-10.254c27.528,53.679,67.237,103.331,96.508,119.136
	c45.335,24.497,121.432,67.414,145.251,85.269c6.138,4.61,14.614,8.909,24.415,12.747
	C1886.559,3537.954,1816.944,3545.498,1737.047,3528.612z M1797.52,3928.476c-21.414-55.89-46.539-157.424-13.333-278.545
	c3.532-12.888,7.437-24.977,11.458-36.764c19.492,17.865,44.102,35.786,72.397,46.868
	C1828.236,3782.641,1807.476,3875.022,1797.52,3928.476z M2006.081,3723.026c-37.141,115.853-131.097,193.624-179.221,227.256
	c8.361-48.533,28.634-146.06,72.701-281.461c7.611,1.28,15.344,2.182,23.312,2.182c0.725,0,1.468-0.019,2.192-0.019
	c44.631-0.724,74.822-11.025,100.495-21.806C2020.554,3672.593,2014.43,3696.977,2006.081,3723.026z M2083.889,3749.235
	c-13.236-20.79-24.219-40.414-34.187-59.445c5.042-19.398,9.133-38.015,12.413-55.927c14.619-5.588,29.539-9.671,47.677-10.292
	c84.747,133.049,172.493,239.005,219.094,292.185C2264.91,3898.823,2151.324,3855.182,2083.889,3749.235z M2355.365,3896.274
	c-43.803-49.794-127.593-150.5-209.835-277.689c28.126-6.99,58.738-22.051,84.891-45.551c1.912,2.634,3.824,5.193,5.738,7.958
	C2323.3,3706.61,2348.234,3831.607,2355.365,3896.274z M2228.717,3527.239c-32.258,42.578-83.585,62.691-117.621,63.368
	c-34.911,0.715-60.151,11.778-84.564,22.484c-27.319,11.985-55.56,24.384-101.995,25.118c-0.555,0.019-1.101,0.019-1.646,0.019
	c-51.981,0-97.503-39.37-123.877-68.157c8.631,0.537,17.131,0.875,25.372,0.875c60.974,0,110.142-14.553,132.92-40.951
	c13.441,2.427,27.721,3.923,42.19,3.923c24.262,0,48.824-3.951,69.869-13.622c22.357-10.292,40.038-27.893,52.63-50.104
	c64.17-13.989,105.991-32.917,134.147-55.495C2261.563,3457.953,2252.548,3495.771,2228.717,3527.239z M2136.872,3433.098
	c6.265-23.904,7.648-50.725,3.777-78.91c42.192-42.023,72.545-96.313,74.587-140.011c1.533-32.982,5.851-53.923,9.661-72.381
	c2.596-12.587,5.052-24.479,6.181-38.063l0.376-4.365c2.991-33.716,9.229-103.896-73.482-152.984
	c-17.58-10.423-33.999-16.482-49.135-19.746c-7.671-21.354-25.908-49.229-59.008-67.395c23.5-13.707,63.206-29.511,108.115-16.51
	c55.438,16.049,74.441,67.565,88.317,105.176c4.403,11.966,8.213,22.296,12.747,30.217c6.585,11.515,17.677,22.578,29.417,34.262
	c22.493,22.409,47.978,47.79,47.978,81.243c0,34.074-9.06,61.938-20.527,97.217c-7.31,22.465-15.598,47.922-23.105,79.625
	l-1.74,7.394C2274.423,3348.535,2262.017,3400.887,2136.872,3433.098z M2400.722,3205.203c-4.76,23.03-9.257,44.761-12.455,65.871
	c-1.797,11.853-2.446,23.801-3.142,36.426c-2.867,52.541-6.124,106.68-96.087,153.792c2.644-21.882,1.505-47.075-4.887-75.438
	c22.032-29.859,30.212-64.036,38.782-100.5l1.731-7.319c7.197-30.405,15.259-55.184,22.371-77.066
	c11.882-36.52,22.145-68.072,22.145-107.339c0-47.075-33.312-80.245-57.63-104.46c-10.132-10.085-19.699-19.624-24.093-27.3
	c-3.18-5.569-6.548-14.713-10.451-25.287c-14.441-39.154-38.608-104.667-109.954-125.307c-9.718-2.813-19.145-4.403-28.333-5.315
	c-7.644-24.996-20.372-45.871-36.271-62.569c28.124-6.331,74.505-10.546,119.195,13.321
	c73.764,39.398,102.936,83.256,124.046,136.953c8.269,21.054,20.414,40.452,32.155,59.192
	c20.96,33.472,40.753,65.062,41.901,106.925C2421.052,3106.914,2410.713,3156.868,2400.722,3205.203z M2495.362,3241.036
	c14.365-5.522,28.601-11.289,42.644-17.338c43.164-18.73,84.693-40.236,125.382-63.002
	c81.492-45.428,159.649-95.598,235.762-149.249c4.118-2.907,5.238-8.589,2.456-12.85c-2.846-4.346-8.681-5.57-13.032-2.719
	l-0.183,0.113c-77.031,50.377-156.66,97.64-238.45,139.55c-40.864,21.016-82.395,40.697-124.792,57.357
	c-29.998,11.75-60.539,22.54-91.2,30.142c30.77-45.579,102.379-131.93,246.534-219.024
	c137.367-82.955,333.004-112.569,405.978-121.112c-30.207,58.364-113.84,201.658-244.34,285.892
	C2737.702,3236.2,2590.287,3244.263,2495.362,3241.036z M2960.174,3462.722c120.754,83.387,191.733,240.604,215.825,301.809
	c-65.664-10.668-236.541-45.137-337.737-126.831c-128.028-103.35-181.389-238.544-200.834-303.747
	c22.453,12.314,44.695,25.052,66.089,39.257c32.797,20.941,64.246,44.064,94.7,68.458c30.546,24.29,59.721,50.377,87.652,77.724
	c27.839,27.3,54.833,56.172,78.712,86.398l0.266,0.339c3.114,3.932,8.801,4.741,12.898,1.769c4.207-3.048,5.146-8.937,2.093-13.142
	c-23.777-32.776-49.688-62.767-77.042-91.93c-27.336-29.05-56.021-56.887-86.252-83.03c-28.88-25.137-58.907-49.069-90.281-71.224
	C2795.071,3372.411,2883.115,3409.495,2960.174,3462.722z M3621.601,3426.052c-71.898,33.058-339.665,58.063-561.775-58.608
	c65.673,2.474,131.439,2.474,197.152-0.818c68.143-4.177,136.267-9.718,203.716-21.101c67.611-10.856,134.232-24.92,199.856-48.938
	c5.506-2.022,8.396-8.1,6.449-13.65c-1.964-5.607-8.095-8.551-13.7-6.594l-0.846,0.301
	c-62.171,21.788-129.143,35.259-195.479,44.874c-66.537,10.31-133.875,14.854-201.162,18.072
	c-72.028,2.625-144.127,1.223-216.08-3.067c68.453-53.302,238.471-172.646,402.817-185.129
	c174.48-13.02,392.723,70.612,466.788,101.732C3859.214,3288.835,3735.591,3373.634,3621.601,3426.052z"/>
</svg>
